HIERARCHY
ROOT Hips
{
  OFFSET 0 0 0
  CHANNELS 6 Xposition Yposition Zposition Zrotation Yrotation Xrotation
  JOINT LeftThigh
  {
    OFFSET 8.409438 0 -5.917753
    CHANNELS 3 Zrotation Yrotation Xrotation
    JOINT LeftLeg
    {
      OFFSET 0 0 -42.358652
      CHANNELS 3 Zrotation Yrotation Xrotation
      JOINT LeftFoot
      {
        OFFSET 0 0 -39.357303
        CHANNELS 3 Zrotation Yrotation Xrotation
      }
    }
  }
  JOINT RightThigh
  {
    OFFSET -8.409438 0 -5.917753
    CHANNELS 3 Zrotation Yrotation Xrotation
    JOINT RightLeg
    {
      OFFSET 0 0 -42.358652
      CHANNELS 3 Zrotation Yrotation Xrotation
      JOINT RightFoot
      {
        OFFSET 0 0 -39.357303
        CHANNELS 3 Zrotation Yrotation Xrotation
      }
    }
  }
  JOINT SpineLow
  {
    OFFSET 0 0 4.719101
    CHANNELS 3 Zrotation Yrotation Xrotation
    JOINT SpineMid
    {
      OFFSET 0 0 12.899191
      CHANNELS 3 Zrotation Yrotation Xrotation
      JOINT Chest
      {
        OFFSET 0 0 12.899191
        CHANNELS 3 Zrotation Yrotation Xrotation
        JOINT LeftShoulder
        {
          OFFSET 7.550562 1.41573 9.438202
          CHANNELS 3 Zrotation Yrotation Xrotation
          JOINT LeftArm
          {
            OFFSET 9.155056 0 4.247191
            CHANNELS 3 Zrotation Yrotation Xrotation
            JOINT LeftForearm
            {
              OFFSET 0 0 25.771955
              CHANNELS 3 Zrotation Yrotation Xrotation
              JOINT LeftHand
              {
                OFFSET 0 0 25.197169
                CHANNELS 3 Zrotation Yrotation Xrotation
              }
            }
          }
        }
        JOINT RightShoulder
        {
          OFFSET -7.550562 1.41573 9.438202
          CHANNELS 3 Zrotation Yrotation Xrotation
          JOINT RightArm
          {
            OFFSET -9.155056 0 4.247191
            CHANNELS 3 Zrotation Yrotation Xrotation
            JOINT RightForearm
            {
              OFFSET 0 0 -25.771955
              CHANNELS 3 Zrotation Yrotation Xrotation
              JOINT RightHand
              {
                OFFSET 0 0 -25.197169
                CHANNELS 3 Zrotation Yrotation Xrotation
              }
            }
          }
        }
        JOINT Neck
        {
          OFFSET 0 0 15.101124
          CHANNELS 3 Zrotation Yrotation Xrotation
          JOINT Head
          {
            OFFSET 0 0 11.325843
            CHANNELS 3 Zrotation Yrotation Xrotation
            End Site
            {
              OFFSET 0 0 14.157303
            }
          }
        }
      }
    }
  }
}
MOTION
Frames: 14
Frame Time: 0.0
0.0  89.887642  0.0  17.956716  -67.666808  -118.952978  46.531445  -34.727641  -25.84948  18.490534  25.863591  69.032308  -1.501691  1.480992  -0.19364  -23.861142  9.31281  -31.073513  23.58262  11.376902  62.481995  15.393271  7.4345  -4.528  1.270657  1.552482  1.675507  3.583295  4.151738  4.665694  3.583295  4.151737  4.665694  -9.945397  21.979087  8.387394  -98.947049  53.555328  -78.594644  -34.745273  -1.776482  85.17339  61.475481  -13.333719  20.277925  -3.568748  -1.614068  18.876756  128.583278  31.077974  40.3361  -7.728779  4.513529  -80.55511  88.177152  8.510891  -22.872419  4.65931  -6.236594  11.874899  3.61426  -4.589377  8.945652  
0.0  89.887642  0.0  18.113286  -67.676198  -119.124684  46.338727  -34.692316  -25.691584  18.417403  25.774433  68.964007  -1.455496  1.508699  -0.167378  -23.479496  9.315872  -30.884885  23.558833  11.301879  62.532104  15.387007  7.493881  -4.525858  1.263097  1.547224  1.661236  3.561339  4.138704  4.62587  3.561339  4.138704  4.625871  -9.856186  21.978537  8.545653  -98.82113  53.627846  -78.699596  -34.647817  -1.905797  85.176846  61.42774  -13.404371  20.395773  -3.608458  -1.547659  19.011154  128.482179  31.028725  40.246806  -7.742574  4.738536  -80.648029  88.002441  8.583805  -22.978442  4.749666  -6.269421  11.57626  3.679438  -4.614487  8.722997  
0.0  89.887642  0.0  18.068493  -67.517322  -118.974781  45.996368  -34.514371  -25.644988  18.312802  25.623519  68.860279  -1.403866  1.546742  -0.104086  -23.546496  9.309632  -30.804636  23.908075  11.001121  62.446525  15.269506  7.567484  -4.554475  1.172211  1.537447  1.641711  3.310832  4.119432  4.566294  3.310832  4.119433  4.566294  -9.461651  22.008717  8.595948  -98.831725  53.705559  -78.63484  -34.501002  -1.663731  85.297562  61.519339  -13.449206  20.373622  -3.477808  -1.514012  19.119039  128.309805  30.999888  40.195659  -7.620407  4.963889  -80.715618  87.860145  8.644211  -23.057334  5.048963  -6.220499  11.202967  3.898981  -4.575112  8.446171  
0.0  89.887642  0.0  18.329891  -67.556223  -119.20057  45.89405  -34.380416  -25.530954  18.149248  25.500344  68.766545  -1.342225  1.589271  -0.054051  -22.766029  9.382197  -30.619673  23.666292  11.058749  62.565414  15.214231  7.584454  -4.589796  1.166828  1.55002  1.633354  3.296513  4.154573  4.543802  3.296513  4.154573  4.543802  -9.362127  21.940203  8.637308  -98.636897  53.837386  -78.624926  -34.515811  -1.65531  85.257904  61.432503  -13.476971  20.361778  -3.431368  -1.482271  19.227255  128.146617  31.004702  40.125047  -7.577794  5.063826  -80.80767  87.686854  8.692557  -23.081977  5.15611  -6.270125  10.833095  3.976238  -4.613405  8.170438  
0.0  89.887642  0.0  18.376947  -67.417259  -119.148825  45.625149  -34.156399  -25.47682  17.996738  25.33858  68.69684  -1.278928  1.618295  -0.017415  -21.362064  9.781077  -30.18556  22.928133  11.134696  62.485029  14.954927  7.437409  -4.592634  1.073582  1.553418  1.631412  3.041596  4.170422  4.532878  3.041596  4.170422  4.532878  -8.839204  21.964155  8.543729  -98.621768  53.970004  -78.498886  -34.55213  -1.535118  85.167408  61.520561  -13.450348  20.264866  -3.161753  -1.482948  19.247978  127.649903  31.145178  40.025715  -7.217137  5.149384  -80.896212  87.601511  8.745102  -23.229162  5.471603  -6.247613  10.387523  4.207631  -4.594822  7.839751  
0.0  89.887642  0.0  18.483776  -67.388743  -119.21423  45.500697  -33.988863  -25.417688  17.801726  25.253695  68.617003  -1.208795  1.633717  0.010482  -20.759472  9.814745  -29.983052  22.784734  11.129846  62.504752  14.826721  7.450434  -4.601981  1.068906  1.576932  1.639726  3.031041  4.234575  4.556549  3.031041  4.234575  4.556549  -8.828055  21.803234  8.451361  -98.454747  54.105709  -78.423991  -34.650901  -1.45538  85.071048  61.461877  -13.439128  20.201209  -3.121824  -1.554163  19.218981  127.467204  31.11403  39.999079  -7.142077  5.095273  -80.949362  87.498901  8.743537  -23.177479  5.579069  -6.321845  9.958693  4.28478  -4.652499  7.520056  
0.0  89.887642  0.0  18.188352  -67.139278  -118.765701  45.237654  -33.785559  -25.502037  17.630506  25.179114  68.548221  -1.175196  1.637731  0.037639  -20.41404  9.811125  -29.892441  22.883643  10.983965  62.343074  14.566156  7.222877  -4.508308  0.982107  1.586918  1.64293  2.794551  4.267753  4.560302  2.794551  4.267754  4.560301  -8.596503  21.670492  8.252443  -98.39844  54.196177  -78.362393  -34.758646  -1.409151  84.931608  61.418542  -13.415438  20.149198  -3.144357  -1.709311  19.062388  127.11518  31.174175  39.98888  -7.056748  4.926645  -81.02557  87.604257  8.775284  -23.387199  5.832419  -6.342428  9.47306  4.469773  -4.668355  7.159016  
0.0  89.887642  0.0  17.965292  -67.033428  -118.457511  45.132771  -33.669972  -25.646037  17.471273  25.178507  68.514152  -1.1062  1.637913  0.086883  -20.156755  9.704547  -29.763564  22.896907  10.849879  62.278427  14.42836  7.22503  -4.413456  0.981016  1.607819  1.658119  2.794072  4.324254  4.602804  2.794072  4.324254  4.602804  -8.762802  21.38285  8.068032  -98.284527  54.321066  -78.316552  -34.91987  -1.330124  84.812786  61.360804  -13.371681  20.135977  -3.146889  -1.832164  18.926351  126.897167  31.157481  39.983006  -6.977518  4.80777  -81.06348  87.604105  8.811045  -23.244293  5.922368  -6.425751  9.01916  4.533456  -4.733767  6.820498  
0.0  89.887642  0.0  17.171273  -66.556206  -117.459962  44.750376  -33.485282  -25.98518  17.35314  25.169962  68.539502  -1.118847  1.603674  0.101043  -20.369092  9.561205  -29.756079  22.872845  10.693168  62.058411  14.267307  7.112723  -4.232768  0.883994  1.60368  1.65856  2.528404  4.319748  4.597543  2.528405  4.319747  4.597543  -8.77855  21.156381  7.846305  -98.196768  54.412824  -78.283914  -35.090209  -1.219454  84.687467  61.292236  -13.301429  20.151203  -3.438451  -2.061581  18.671281  126.841651  31.053164  40.147098  -6.581658  4.783254  -81.211908  87.56386  8.863857  -23.116856  6.085166  -6.426725  8.555709  4.650456  -4.736617  6.475005  
0.0  89.887642  0.0  16.615292  -66.269295  -116.78989  44.613114  -33.316978  -26.318321  17.098887  25.173609  68.535354  -1.068549  1.639367  0.121363  -20.581052  9.339293  -29.671788  23.072181  10.488492  61.893271  14.187337  7.116738  -4.055333  0.887974  1.608464  1.653929  2.53934  4.33272  4.585341  2.53934  4.33272  4.585341  -9.1072  20.853184  7.813986  -97.967429  54.529366  -78.112115  -35.261513  -1.031854  84.570061  61.171103  -13.211913  20.171237  -3.526441  -2.131469  18.673234  126.648014  31.059871  40.265092  -6.710145  4.732232  -81.438765  87.514586  8.934789  -22.976395  6.048886  -6.474491  8.208199  4.620091  -4.776306  6.214607  
0.0  89.887642  0.0  15.522861  -65.598907  -115.467191  44.302401  -33.053383  -26.892019  16.910996  25.128248  68.62768  -1.181179  1.547515  0.109115  -21.362908  9.105819  -29.641039  23.448308  10.119689  61.545596  14.013334  7.1495  -3.861211  0.821961  1.580034  1.609412  2.353852  4.261318  4.458048  2.353852  4.261318  4.458048  -9.26007  20.676959  7.972188  -97.672534  54.666437  -77.764278  -35.453166  -0.687381  84.444691  61.012202  -13.142169  20.166197  -3.730296  -2.096465  18.776948  125.224945  31.569277  39.770425  -5.70348  5.046178  -81.885796  87.478727  8.959012  -22.857237  5.934347  -6.456526  7.917589  4.530892  -4.767091  5.995473  
0.0  89.887642  0.0  14.540653  -64.90907  -114.268983  44.087566  -32.707224  -27.538264  16.532191  25.163679  68.663181  -1.16633  1.492541  0.133631  -22.1057  8.842956  -29.659979  23.684145  9.929061  61.297635  13.757917  7.155557  -3.674572  0.805632  1.538356  1.530073  2.301302  4.151436  4.238213  2.301302  4.151436  4.238214  -9.54309  20.610849  8.382435  -97.167525  54.895781  -77.127126  -35.657425  -0.159572  84.293485  60.940922  -13.096453  20.11888  -3.888251  -1.86578  19.271462  125.085624  31.55515  39.95028  -6.450964  5.163139  -82.471995  87.372255  8.989026  -22.806929  5.650832  -6.395575  7.842492  4.316922  -4.725659  5.935684  
0.0  89.887642  0.0  13.233878  -63.887568  -112.660969  43.795768  -32.202982  -28.412131  16.080556  25.119837  68.767989  -1.22525  1.415194  0.11944  -23.557618  8.579978  -29.772616  24.23542  9.677303  60.87162  13.674476  7.27424  -3.538449  0.768052  1.468321  1.394842  2.185764  3.967159  3.863178  2.185764  3.967159  3.863178  -9.847613  20.685201  9.023892  -96.494625  55.225928  -76.154593  -35.839028  0.427232  84.076936  60.951993  -13.048434  19.985216  -4.063214  -1.46397  20.158636  124.48878  31.705326  39.899448  -7.268545  5.522498  -83.284336  87.134632  9.158493  -22.965242  5.153797  -6.307105  7.886815  3.943894  -4.665214  5.962988  
0.0  89.887642  0.0  11.859976  -62.58101  -110.971848  43.364774  -31.526897  -29.412135  15.407318  25.053133  68.846946  -1.244686  1.332151  0.094853  -24.762722  8.434305  -29.882729  24.15178  9.73841  60.510445  13.594553  7.24046  -3.360634  0.726  1.380481  1.229563  2.056112  3.734943  3.40536  2.056112  3.734943  3.40536  -10.296719  20.957416  9.848369  -95.526951  55.597841  -74.65672  -35.99601  0.900777  83.728752  60.907386  -13.022954  19.806174  -4.163636  -0.987873  21.299397  123.768916  31.741819  39.804247  -8.641436  5.860832  -84.382102  86.815675  9.467774  -23.334589  4.544813  -6.133315  8.039041  3.487013  -4.541501  6.069657  
